<?xml version="1.0" encoding="UTF-8"?>
<svg version="1.1" viewBox="0 0 2048 2048" width="612" height="612" xmlns="http://www.w3.org/2000/svg">
<path transform="translate(0)" d="m0 0h2048v2048h-2048z" fill="#FEFEFE"/>
<path transform="translate(1448,859)" d="m0 0 5 1 10 20 12 22 14 27 12 22 13 25 10 19 17 32 12 23 12 22 12 23 10 19 18 34 12 23 12 22 15 29 9 16 3 6v3l-49 5-59 8-53 9-41 8-40 9-52 13-44 13-37 12-24 9-37 15-34 16-27 14-17 10-23 15-14 10-14 11-14 12-16 15-11 12-11 14-10 14-4 6-3-1-12-17-10-13-11-12-21-21-11-9-18-14-27-18-24-14-22-12-28-13-23-10-28-11-36-13-38-12-43-12-49-12-43-9-42-8-58-9-38-5-36-4-12-1v-3l15-26 11-19 15-26 14-24 8-14 14-24 16-28 15-26 14-24 16-28 14-24 15-26 14-24 12-21 15-26 3-5 12 2 34 7 20 6 27 10 3 3-20-1-15-1h-49l-12 24-11 23-14 29-12 25-13 27-11 23-8 16-12 25-28 58-16 34-6 12 17 1 64 8 52 8 47 9 43 10 42 11 52 17 26 10 29 12 29 14 26 14 22 14 16 11 14 11 14 12 10 9 10 10 7 8 10 13 10 15 9 17 2 6h2l5-12 8-15 10-14 13-16 22-22 11-9 14-11 17-12 19-12 23-13 19-10 29-13 33-13 34-12 40-12 56-14 60-12 43-7 52-7 42-5-4-10-17-39-18-42-11-25-30-70-13-30-15-35-14-32-10-23-2-6-16 3-41 7-45 9-54 13-48 13-35 11-7 2 1-3 28-15 19-10 29-13 29-11 33-11 38-10 38-8z" fill="#044973"/>
<path transform="translate(815,785)" d="m0 0h39l90 1v171h-171v-171z" fill="#009FC6"/>
<path transform="translate(1045,698)" d="m0 0h169l1 1v170h-171v-170z" fill="#009FC6"/>
<path transform="translate(866,552)" d="m0 0h130v131l-1 1h-127l-3-1v-130z" fill="#009FC6"/>
<path transform="translate(1015,975)" d="m0 0h123l1 1v130l-1 1h-129l-1-1v-130z" fill="#009FC6"/>
<path transform="translate(480,1305)" d="m0 0 13 1 35 5 35 6 36 7 34 8 37 10 27 8 47 16 28 11 29 13 29 14 22 12 22 13 24 16 18 13 17 14 12 11 15 15 5 6-2 1-12-9-10-7-19-12-25-14-42-20-32-13-26-10-36-12-32-10-37-10-48-12-51-11-48-9-56-9-29-4 1-4 16-31z" fill="#009FC6"/>
<path transform="translate(1565,1305)" d="m0 0h8l8 16 10 19-1 3-67 10-50 9-62 13-64 16-47 14-28 9-37 13-39 16-34 16-26 14-18 11-11 7-18 13h-2l2-4 9-10 20-18 17-14 18-13 18-12 18-11 21-12 27-14 28-13 37-15 40-14 39-12 38-10 44-10 43-8 45-7z" fill="#009FC6"/>
<path transform="translate(1210,540)" d="m0 0h94v95l-3 1-92-1v-94z" fill="#009FC6"/>
<path transform="translate(871,1084)" d="m0 0h59l1 1v79l-1 1h-72l-7-1-1-3 1-76z" fill="#009FC6"/>
</svg>
